<svg viewBox="0 0 48 48" fill="none" xmlns="http://www.w3.org/2000/svg">
<rect width="48" height="48" rx="24" fill="#0D79CE"/>
<path d="M24 25.0002L30 34.0002H18L24 25.0002ZM22.94 22.5602C22.7926 22.4229 22.6744 22.2573 22.5925 22.0733C22.5105 21.8893 22.4664 21.6907 22.4628 21.4892C22.4593 21.2878 22.4963 21.0878 22.5718 20.901C22.6472 20.7142 22.7595 20.5446 22.9019 20.4021C23.0444 20.2597 23.214 20.1474 23.4008 20.072C23.5876 19.9965 23.7877 19.9595 23.9891 19.963C24.1905 19.9666 24.3891 20.0107 24.5731 20.0926C24.7571 20.1746 24.9227 20.2928 25.06 20.4402C25.325 20.7246 25.4692 21.1006 25.4624 21.4892C25.4555 21.8779 25.2981 22.2486 25.0233 22.5234C24.7484 22.7983 24.3777 22.9557 23.9891 22.9626C23.6005 22.9694 23.2244 22.8252 22.94 22.5602ZM17.281 14.7832L18.696 16.1982C17.2897 17.6047 16.4996 19.5122 16.4996 21.5012C16.4996 23.4902 17.2897 25.3977 18.696 26.8042L17.281 28.2192C16.3987 27.337 15.6988 26.2897 15.2213 25.137C14.7438 23.9843 14.498 22.7489 14.498 21.5012C14.498 20.2535 14.7438 19.0181 15.2213 17.8654C15.6988 16.7127 16.3987 15.6654 17.281 14.7832ZM30.717 14.7832C31.5993 15.6654 32.2992 16.7127 32.7767 17.8654C33.2542 19.0181 33.5 20.2535 33.5 21.5012C33.5 22.7489 33.2542 23.9843 32.7767 25.137C32.2992 26.2897 31.5993 27.337 30.717 28.2192L29.302 26.8042C30.7084 25.3977 31.4984 23.4902 31.4984 21.5012C31.4984 19.5122 30.7084 17.6047 29.302 16.1982L30.717 14.7832ZM20.11 17.6112L21.524 19.0252C21.199 19.3502 20.9411 19.7361 20.7652 20.1607C20.5893 20.5854 20.4988 21.0405 20.4988 21.5002C20.4988 21.9599 20.5893 22.415 20.7652 22.8397C20.9411 23.2643 21.199 23.6502 21.524 23.9752L20.11 25.3892C19.0786 24.3578 18.4992 22.9589 18.4992 21.5002C18.4992 20.0416 19.0786 18.6426 20.11 17.6112ZM27.888 17.6112C28.9194 18.6426 29.4988 20.0416 29.4988 21.5002C29.4988 22.9589 28.9194 24.3578 27.888 25.3892L26.474 23.9752C26.7991 23.6502 27.0569 23.2643 27.2328 22.8397C27.4087 22.415 27.4993 21.9599 27.4993 21.5002C27.4993 21.0405 27.4087 20.5854 27.2328 20.1607C27.0569 19.7361 26.7991 19.3502 26.474 19.0252L27.888 17.6112Z" fill="white"/>
</svg>
