<svg viewBox="0 0 48 48" fill="none" xmlns="http://www.w3.org/2000/svg">
<rect width="48" height="48" rx="24" fill="#0D79CE"/>
<path d="M14 32H34V34H14V32ZM16 24H18V31H16V24ZM21 24H23V31H21V24ZM25 24H27V31H25V24ZM30 24H32V31H30V24ZM14 19L24 14L34 19V23H14V19ZM24 20C24.2652 20 24.5196 19.8946 24.7071 19.7071C24.8946 19.5196 25 19.2652 25 19C25 18.7348 24.8946 18.4804 24.7071 18.2929C24.5196 18.1054 24.2652 18 24 18C23.7348 18 23.4804 18.1054 23.2929 18.2929C23.1054 18.4804 23 18.7348 23 19C23 19.2652 23.1054 19.5196 23.2929 19.7071C23.4804 19.8946 23.7348 20 24 20Z" fill="white"/>
</svg>
