<svg viewBox="0 0 48 48" fill="none" xmlns="http://www.w3.org/2000/svg">
<rect width="48" height="48" rx="24" fill="#0D79CE"/>
<path d="M24 14C29.523 14 34 18.477 34 24C34 29.523 29.523 34 24 34C18.477 34 14 29.523 14 24C14 18.477 18.477 14 24 14ZM28.004 24.878C27.659 24.353 27.41 23.975 26.462 24.125C24.672 24.409 24.473 24.722 24.388 25.238L24.364 25.394L24.339 25.56C24.242 26.243 24.245 26.501 24.559 26.83C25.824 28.158 26.582 29.115 26.812 29.675C26.924 29.948 27.212 30.775 27.014 31.593C28.2278 31.1095 29.3083 30.3425 30.165 29.356C30.275 28.982 30.355 28.516 30.355 27.952V27.847C30.355 26.925 30.355 26.504 29.703 26.131C29.4935 26.0122 29.2782 25.9037 29.058 25.806C28.691 25.639 28.448 25.53 28.12 25.05C28.0804 24.9933 28.0417 24.936 28.004 24.878ZM24 15.833C21.683 15.833 19.59 16.799 18.104 18.349C18.281 18.472 18.435 18.645 18.541 18.883C18.745 19.34 18.745 19.811 18.745 20.228C18.745 20.556 18.745 20.868 18.85 21.093C18.994 21.401 19.616 21.533 20.165 21.647C20.362 21.689 20.564 21.731 20.748 21.782C21.254 21.922 21.646 22.377 21.959 22.742C22.089 22.893 22.282 23.116 22.379 23.172C22.429 23.136 22.59 22.961 22.669 22.674C22.731 22.454 22.713 22.26 22.624 22.154C22.064 21.494 22.095 20.224 22.268 19.755C22.54 19.016 23.39 19.071 24.012 19.111C24.244 19.126 24.462 19.141 24.626 19.12C25.248 19.042 25.44 18.095 25.575 17.91C25.867 17.51 26.761 16.907 27.315 16.535C26.2715 16.071 25.142 15.8318 24 15.833Z" fill="white"/>
</svg>
