<svg viewBox="0 0 48 48" fill="none" xmlns="http://www.w3.org/2000/svg">
<rect width="48" height="48" rx="24" fill="#0D79CE"/>
<path d="M24 22C25.0609 22 26.0783 21.5786 26.8284 20.8284C27.5786 20.0783 28 19.0609 28 18C28 16.9391 27.5786 15.9217 26.8284 15.1716C26.0783 14.4214 25.0609 14 24 14C22.9391 14 21.9217 14.4214 21.1716 15.1716C20.4214 15.9217 20 16.9391 20 18C20 19.0609 20.4214 20.0783 21.1716 20.8284C21.9217 21.5786 22.9391 22 24 22ZM17.5 25C18.163 25 18.7989 24.7366 19.2678 24.2678C19.7366 23.7989 20 23.163 20 22.5C20 21.837 19.7366 21.2011 19.2678 20.7322C18.7989 20.2634 18.163 20 17.5 20C16.837 20 16.2011 20.2634 15.7322 20.7322C15.2634 21.2011 15 21.837 15 22.5C15 23.163 15.2634 23.7989 15.7322 24.2678C16.2011 24.7366 16.837 25 17.5 25ZM33 22.5C33 23.163 32.7366 23.7989 32.2678 24.2678C31.7989 24.7366 31.163 25 30.5 25C29.837 25 29.2011 24.7366 28.7322 24.2678C28.2634 23.7989 28 23.163 28 22.5C28 21.837 28.2634 21.2011 28.7322 20.7322C29.2011 20.2634 29.837 20 30.5 20C31.163 20 31.7989 20.2634 32.2678 20.7322C32.7366 21.2011 33 21.837 33 22.5ZM24 23C25.3261 23 26.5979 23.5268 27.5355 24.4645C28.4732 25.4021 29 26.6739 29 28V34H19V28C19 26.6739 19.5268 25.4021 20.4645 24.4645C21.4021 23.5268 22.6739 23 24 23ZM17 28C17 27.307 17.1 26.638 17.288 26.006L17.118 26.02C16.2609 26.1141 15.4687 26.5213 14.8933 27.1635C14.3179 27.8057 13.9998 28.6377 14 29.5V34H17V28ZM34 34V29.5C34.0001 28.6084 33.6599 27.7503 33.0489 27.101C32.4378 26.4516 31.602 26.06 30.712 26.006C30.899 26.638 31 27.307 31 28V34H34Z" fill="white"/>
</svg>
