<svg viewBox="0 0 48 48" fill="none" xmlns="http://www.w3.org/2000/svg">
<rect width="48" height="48" rx="24" fill="#0D79CE"/>
<path d="M24 14C29.523 14 34 18.477 34 24C34 29.523 29.523 34 24 34C18.477 34 14 29.523 14 24C14 18.477 18.477 14 24 14ZM19.197 26.682L17.022 28.855C17.5264 29.5783 18.1396 30.2192 18.84 30.755L19.145 30.978L21.318 28.803C20.5108 28.3509 19.83 27.7035 19.338 26.92L19.197 26.682ZM28.803 26.682C28.3509 27.4892 27.7035 28.17 26.92 28.662L26.682 28.802L28.855 30.978C29.5783 30.4736 30.2192 29.8603 30.755 29.16L30.978 28.855L28.803 26.682ZM24 20C22.9391 20 21.9217 20.4214 21.1716 21.1716C20.4214 21.9217 20 22.9391 20 24C20 25.0609 20.4214 26.0783 21.1716 26.8284C21.9217 27.5786 22.9391 28 24 28C25.0609 28 26.0783 27.5786 26.8284 26.8284C27.5786 26.0783 28 25.0609 28 24C28 22.9391 27.5786 21.9217 26.8284 21.1716C26.0783 20.4214 25.0609 20 24 20ZM19.145 17.022C18.4217 17.5264 17.7808 18.1396 17.245 18.84L17.022 19.145L19.197 21.318C19.6491 20.5108 20.2965 19.83 21.08 19.338L21.318 19.198L19.145 17.022ZM28.855 17.022L26.682 19.197C27.4892 19.6491 28.17 20.2965 28.662 21.08L28.802 21.318L30.978 19.145C30.4736 18.4217 29.8604 17.7808 29.16 17.245L28.855 17.022Z" fill="white"/>
</svg>
