<svg width="64" height="64" viewBox="0 0 64 64" fill="none" xmlns="http://www.w3.org/2000/svg">
<rect width="64" height="64" rx="32" fill="#0D79CE"/>
<path d="M25.997 29.5115V32.8025C25.2005 33.263 24.5206 33.9005 24.0098 34.6657C23.4991 35.4309 23.1711 36.3033 23.0513 37.2155C22.9315 38.1277 23.0231 39.0552 23.3189 39.9263C23.6148 40.7975 24.107 41.5889 24.7576 42.2394C25.4081 42.89 26.1995 43.3822 27.0707 43.6781C27.9418 43.974 28.8694 44.0655 29.7815 43.9457C30.6937 43.8259 31.5661 43.4979 32.3313 42.9872C33.0965 42.4764 33.734 41.7965 34.1945 41H37.484C36.9764 42.4326 36.1142 43.7133 34.9778 44.7226C33.8415 45.732 32.4681 46.4372 30.9856 46.7723C29.5032 47.1075 27.96 47.0618 26.5 46.6395C25.0399 46.2171 23.7107 45.4319 22.6361 44.357C21.5615 43.2822 20.7767 41.9527 20.3547 40.4926C19.9327 39.0324 19.8874 37.4892 20.223 36.0069C20.5585 34.5245 21.2641 33.1512 22.2737 32.0152C23.2834 30.8791 24.5643 30.0188 25.997 29.5115ZM31.997 39.5C30.8035 39.5 29.6589 39.0259 28.815 38.182C27.9711 37.3381 27.497 36.1935 27.497 35V29C27.497 27.8065 27.9711 26.6619 28.815 25.818C29.6589 24.9741 30.8035 24.5 31.997 24.5C33.1905 24.5 34.3351 24.9741 35.179 25.818C36.0229 26.6619 36.497 27.8065 36.497 29V36.5H38.648C39.125 36.5001 39.595 36.6139 40.0192 36.832C40.4434 37.0501 40.8094 37.3661 41.087 37.754L41.2205 37.9565L45.284 44.7275L42.7115 46.2725L38.645 39.5H31.9955H31.997ZM31.997 17C32.9916 17 33.9454 17.3951 34.6487 18.0983C35.3519 18.8016 35.747 19.7554 35.747 20.75C35.747 21.7446 35.3519 22.6984 34.6487 23.4017C33.9454 24.1049 32.9916 24.5 31.997 24.5C31.0024 24.5 30.0486 24.1049 29.3454 23.4017C28.6421 22.6984 28.247 21.7446 28.247 20.75C28.247 19.7554 28.6421 18.8016 29.3454 18.0983C30.0486 17.3951 31.0024 17 31.997 17Z" fill="white"/>
</svg>
