<svg width="64" height="64" viewBox="0 0 64 64" fill="none" xmlns="http://www.w3.org/2000/svg">
<rect width="64" height="64" rx="32" fill="#0D79CE"/>
<path d="M18.7334 33.3333H26.0361C26.264 37.5563 27.6099 41.6428 29.9361 45.1747C27.0224 44.7173 24.3424 43.3072 22.3153 41.165C20.2881 39.0228 19.028 36.2691 18.7321 33.3347L18.7334 33.3333ZM18.7334 30.6667C19.0293 27.7324 20.2892 24.9789 22.3161 22.8367C24.343 20.6945 27.0226 19.2843 29.9361 18.8267C27.6101 22.3581 26.2642 26.4442 26.0361 30.6667H18.7334ZM45.2667 30.6667H37.9641C37.7359 26.4442 36.39 22.3581 34.0641 18.8267C36.9775 19.2843 39.6571 20.6945 41.684 22.8367C43.7109 24.9789 44.9708 27.7324 45.2667 30.6667ZM45.2667 33.3333C44.9711 36.2678 43.7113 39.0216 41.6844 41.1641C39.6575 43.3066 36.9777 44.717 34.0641 45.1747C36.39 41.6432 37.7359 37.5571 37.9641 33.3347H45.2681L45.2667 33.3333ZM28.7067 33.3333H35.2934C35.0739 36.9326 33.9405 40.4166 32.0001 43.456C30.0597 40.4166 28.9262 36.9326 28.7067 33.3333ZM28.7067 30.6667C28.9266 27.0683 30.0601 23.5853 32.0001 20.5467C33.94 23.5853 35.0735 27.0683 35.2934 30.6667H28.7067Z" fill="white"/>
</svg>
