<svg viewBox="0 0 64 64" fill="none" xmlns="http://www.w3.org/2000/svg">
<rect width="64" height="64" rx="32" fill="#0D79CE"/>
<path d="M31.9998 29.3332C33.4143 29.3332 34.7709 28.7713 35.7711 27.7711C36.7713 26.7709 37.3332 25.4143 37.3332 23.9998C37.3332 22.5853 36.7713 21.2288 35.7711 20.2286C34.7709 19.2284 33.4143 18.6665 31.9998 18.6665C30.5853 18.6665 29.2288 19.2284 28.2286 20.2286C27.2284 21.2288 26.6665 22.5853 26.6665 23.9998C26.6665 25.4143 27.2284 26.7709 28.2286 27.7711C29.2288 28.7713 30.5853 29.3332 31.9998 29.3332ZM23.3332 33.3332C24.2172 33.3332 25.0651 32.982 25.6902 32.3569C26.3153 31.7317 26.6665 30.8839 26.6665 29.9998C26.6665 29.1158 26.3153 28.2679 25.6902 27.6428C25.0651 27.0177 24.2172 26.6665 23.3332 26.6665C22.4491 26.6665 21.6013 27.0177 20.9761 27.6428C20.351 28.2679 19.9998 29.1158 19.9998 29.9998C19.9998 30.8839 20.351 31.7317 20.9761 32.3569C21.6013 32.982 22.4491 33.3332 23.3332 33.3332ZM43.9998 29.9998C43.9998 30.8839 43.6486 31.7317 43.0235 32.3569C42.3984 32.982 41.5506 33.3332 40.6665 33.3332C39.7824 33.3332 38.9346 32.982 38.3095 32.3569C37.6844 31.7317 37.3332 30.8839 37.3332 29.9998C37.3332 29.1158 37.6844 28.2679 38.3095 27.6428C38.9346 27.0177 39.7824 26.6665 40.6665 26.6665C41.5506 26.6665 42.3984 27.0177 43.0235 27.6428C43.6486 28.2679 43.9998 29.1158 43.9998 29.9998ZM31.9998 30.6665C33.7679 30.6665 35.4636 31.3689 36.7139 32.6191C37.9641 33.8694 38.6665 35.5651 38.6665 37.3332V45.3332H25.3332V37.3332C25.3332 35.5651 26.0355 33.8694 27.2858 32.6191C28.536 31.3689 30.2317 30.6665 31.9998 30.6665ZM22.6665 37.3332C22.6665 36.4092 22.7998 35.5172 23.0505 34.6745L22.8238 34.6932C21.681 34.8187 20.6247 35.3616 19.8575 36.2179C19.0903 37.0741 18.6662 38.1835 18.6665 39.3332V45.3332H22.6665V37.3332ZM45.3332 45.3332V39.3332C45.3333 38.1443 44.8797 37.0002 44.065 36.1345C43.2503 35.2687 42.1358 34.7465 40.9492 34.6745C41.1985 35.5172 41.3332 36.4092 41.3332 37.3332V45.3332H45.3332Z" fill="white"/>
</svg>
