<svg viewBox="0 0 64 64" fill="none" xmlns="http://www.w3.org/2000/svg">
<rect width="64" height="64" rx="32" fill="#0D79CE"/>
<path d="M41.3332 45.3332H22.6665C21.6056 45.3332 20.5882 44.9117 19.8381 44.1616C19.0879 43.4115 18.6665 42.394 18.6665 41.3332V19.9998C18.6665 19.6462 18.807 19.3071 19.057 19.057C19.3071 18.807 19.6462 18.6665 19.9998 18.6665H38.6665C39.0201 18.6665 39.3593 18.807 39.6093 19.057C39.8594 19.3071 39.9998 19.6462 39.9998 19.9998V35.9998H45.3332V41.3332C45.3332 42.394 44.9117 43.4115 44.1616 44.1616C43.4115 44.9117 42.394 45.3332 41.3332 45.3332ZM39.9998 38.6665V41.3332C39.9998 41.6868 40.1403 42.0259 40.3904 42.276C40.6404 42.526 40.9795 42.6665 41.3332 42.6665C41.6868 42.6665 42.0259 42.526 42.276 42.276C42.526 42.0259 42.6665 41.6868 42.6665 41.3332V38.6665H39.9998ZM23.9998 25.3332V27.9998H34.6665V25.3332H23.9998ZM23.9998 30.6665V33.3332H34.6665V30.6665H23.9998ZM23.9998 35.9998V38.6665H30.6665V35.9998H23.9998Z" fill="white"/>
</svg>
