<svg width="64" height="64" viewBox="0 0 64 64" fill="none" xmlns="http://www.w3.org/2000/svg">
<rect width="64" height="64" rx="32" fill="#0D79CE"/>
<path d="M34.828 29.9733C34.5779 29.7234 34.2389 29.583 33.8853 29.583C33.5318 29.583 33.1927 29.7234 32.9426 29.9733L32 30.916C31.4998 31.416 30.8214 31.6969 30.1142 31.6967C29.4069 31.6966 28.7287 31.4155 28.2286 30.9153C27.7286 30.4151 27.4478 29.7368 27.4479 29.0295C27.448 28.3223 27.7291 27.644 28.2293 27.144L35.736 19.6347C37.5132 19.2304 39.3727 19.3968 41.0499 20.1101C42.7272 20.8234 44.1368 22.0473 45.0785 23.6079C46.0201 25.1684 46.4459 26.9861 46.2951 28.8024C46.1443 30.6188 45.4247 32.3414 44.2386 33.7253L41.428 36.572L34.828 29.9733ZM20.2146 21.96C21.5943 20.5805 23.3989 19.7066 25.3367 19.4797C27.2745 19.2527 29.2322 19.686 30.8933 20.7093L26.3426 25.2587C25.3501 26.2408 24.7824 27.573 24.7613 28.9692C24.7403 30.3653 25.2676 31.714 26.23 32.7257C27.1924 33.7373 28.5132 34.3312 29.9086 34.3797C31.3041 34.4283 32.6629 33.9276 33.6933 32.9853L33.8853 32.8013L39.5426 38.4587L33.8853 44.1147C33.3852 44.6146 32.7071 44.8954 32 44.8954C31.2929 44.8954 30.6147 44.6146 30.1146 44.1147L20.2133 34.216C19.4084 33.4112 18.7699 32.4558 18.3343 31.4042C17.8987 30.3526 17.6745 29.2256 17.6745 28.0873C17.6745 26.9491 17.8987 25.822 18.3343 24.7705C18.7699 23.7189 19.4084 22.7635 20.2133 21.9587L20.2146 21.96Z" fill="white"/>
</svg>
