<svg viewBox="0 0 180 180" fill="none" xmlns="http://www.w3.org/2000/svg">
<g opacity="0.07">
<path fill-rule="evenodd" clip-rule="evenodd" d="M68.0164 155.95C61.7352 152.809 55.4539 152.809 52.3133 159.09C49.1727 165.371 49.1727 171.653 55.4539 174.793C61.7351 177.934 68.0163 177.934 71.1569 171.653C74.2975 165.371 74.2976 159.09 68.0164 155.95Z" fill="#60656C"/>
<path fill-rule="evenodd" clip-rule="evenodd" d="M83.7183 177.937C77.4371 174.796 77.437 168.515 80.5776 162.234C83.7182 155.953 89.9994 155.953 96.2806 159.094C102.562 165.375 102.562 171.656 99.4213 174.796C96.2807 181.078 89.9995 181.078 83.7183 177.937Z" fill="#60656C"/>
<path fill-rule="evenodd" clip-rule="evenodd" d="M115.124 171.654C108.843 168.513 108.843 162.232 111.984 155.951C115.124 149.669 121.406 149.669 127.687 152.81C133.968 155.951 133.968 162.232 130.827 168.513C124.546 174.794 118.265 174.794 115.124 171.654Z" fill="#60656C"/>
<path fill-rule="evenodd" clip-rule="evenodd" d="M137.109 155.951C133.968 152.811 133.968 146.53 137.109 140.248C140.249 133.967 146.53 133.967 152.812 137.108C159.093 140.248 159.093 146.53 155.952 152.811C149.671 159.092 143.39 159.092 137.109 155.951Z" fill="#60656C"/>
<path fill-rule="evenodd" clip-rule="evenodd" d="M155.953 130.826C149.671 127.685 149.671 121.404 152.812 115.123C155.953 108.842 162.234 108.842 168.515 111.983C174.796 115.123 174.796 121.404 171.656 127.685C165.374 133.967 159.093 133.967 155.953 130.826Z" fill="#60656C"/>
<path fill-rule="evenodd" clip-rule="evenodd" d="M162.234 102.561C155.953 99.4207 155.953 93.1395 159.093 86.8583C162.234 80.5772 168.515 80.5772 174.796 83.7178C181.078 86.8583 181.078 93.1395 177.937 99.4207C174.796 105.702 168.515 105.702 162.234 102.561Z" fill="#60656C"/>
<path fill-rule="evenodd" clip-rule="evenodd" d="M159.093 74.2965C152.812 71.1559 152.812 64.8747 155.953 58.5935C159.093 52.3123 165.375 52.3123 171.656 55.4529C177.937 58.5935 177.937 64.8747 174.796 71.1559C171.656 77.4371 165.374 77.4371 159.093 74.2965Z" fill="#60656C"/>
<path fill-rule="evenodd" clip-rule="evenodd" d="M146.53 49.1701C140.249 46.0295 140.249 39.7483 143.39 33.4671C146.53 30.3265 152.812 27.1859 159.093 30.3265C165.374 33.4671 165.374 39.7483 162.233 46.0295C155.952 52.3107 149.671 52.3107 146.53 49.1701Z" fill="#60656C"/>
<path fill-rule="evenodd" clip-rule="evenodd" d="M124.547 30.3295C118.265 27.1889 118.265 20.9077 121.406 14.6265C124.546 8.34536 130.828 8.34536 137.109 11.486C143.39 14.6265 143.39 20.9077 140.25 27.1889C133.968 33.4701 127.687 33.4701 124.547 30.3295Z" fill="#60656C"/>
<path fill-rule="evenodd" clip-rule="evenodd" d="M96.2811 20.9065C89.9999 17.7659 89.9999 11.4847 93.1405 5.20351C96.2811 -1.07768 102.562 -1.07768 108.844 2.06291C115.125 5.20351 115.125 11.4847 111.984 17.7659C105.703 20.9065 99.4217 24.0471 96.2811 20.9065Z" fill="#60656C"/>
<path fill-rule="evenodd" clip-rule="evenodd" d="M68.0158 20.9065C61.7346 17.7659 61.7345 11.4847 64.8751 5.20351C68.0157 -1.07768 74.2969 -1.07768 80.5781 2.06291C86.8593 5.20351 86.8594 11.4847 83.7188 17.7659C77.4376 24.0471 71.1564 24.0471 68.0158 20.9065Z" fill="#60656C"/>
<path fill-rule="evenodd" clip-rule="evenodd" d="M39.7503 30.3295C33.4691 27.1889 33.4691 20.9077 36.6097 14.6265C39.7504 8.34536 46.0316 8.34536 52.3128 11.486C58.594 14.6265 58.5939 20.9077 55.4533 27.1889C52.3127 33.4701 42.8909 36.6107 39.7503 30.3295Z" fill="#60656C"/>
<path fill-rule="evenodd" clip-rule="evenodd" d="M17.7664 52.3109C11.4852 49.1703 11.4852 42.8891 14.6258 36.6079C17.7664 30.3267 24.0476 30.3267 30.3288 33.4673C36.6101 36.6079 36.61 42.8891 33.4694 49.1703C30.3288 55.4514 24.0476 55.4514 17.7664 52.3109Z" fill="#60656C"/>
<path fill-rule="evenodd" clip-rule="evenodd" d="M5.20357 77.4346C-1.07764 74.294 -1.07771 68.0128 2.06289 61.7316C8.3441 58.591 14.6253 58.591 17.7659 61.7316C24.0471 64.8722 24.0472 71.1534 20.9066 77.4346C17.766 80.5752 11.4848 80.5752 5.20357 77.4346Z" fill="#60656C"/>
<path fill-rule="evenodd" clip-rule="evenodd" d="M5.20357 108.84C-1.07764 105.7 -1.07771 99.4186 2.06289 93.1374C5.2035 86.8562 11.4847 86.8562 17.7659 89.9968C24.0471 93.1374 24.0472 99.4186 20.9066 105.7C14.6254 108.84 8.34418 111.981 5.20357 108.84Z" fill="#60656C"/>
<path fill-rule="evenodd" clip-rule="evenodd" d="M11.4842 137.11C8.34356 130.828 8.34356 124.547 11.4842 121.407C14.6248 115.125 20.906 115.125 27.1872 118.266C33.4684 121.407 33.4685 127.688 30.3279 133.969C24.0467 137.11 17.7654 140.25 11.4842 137.11Z" fill="#60656C"/>
<path fill-rule="evenodd" clip-rule="evenodd" d="M42.8906 140.247C36.6094 137.107 30.3282 137.107 27.1875 143.388C24.0469 149.669 24.047 155.95 30.3282 159.091C36.6094 162.232 42.8906 162.232 46.0312 155.95C49.1719 152.81 49.1718 143.388 42.8906 140.247Z" fill="#60656C"/>
</g>
</svg>
