<svg width="29" height="28" viewBox="0 0 29 28" fill="none" xmlns="http://www.w3.org/2000/svg">
<path d="M20.3333 14.0003C24.0133 14.0003 27 11.0137 27 7.33366C27 3.65366 24.0133 0.666992 20.3333 0.666992C16.6533 0.666992 13.6667 3.65366 13.6667 7.33366C13.6667 11.0137 16.6533 14.0003 20.3333 14.0003ZM27.6 21.467C27.08 20.9337 26.4267 20.667 25.6667 20.667H16.3333L13.56 19.6937L14 18.4403L16.3333 19.3337H20.0667C20.5333 19.3337 20.9067 19.147 21.2133 18.8403C21.52 18.5337 21.6667 18.1603 21.6667 17.747C21.6667 17.027 21.32 16.5337 20.6267 16.2537L10.9333 12.667H8.33335V24.667L17.6667 27.3337L28.3733 23.3337C28.3867 22.627 28.12 22.0003 27.6 21.467ZM5.66668 12.667H0.312012V27.3337H5.66668V12.667Z" fill="white"/>
</svg>
