<svg width="19" height="20" viewBox="0 0 19 20" fill="none" xmlns="http://www.w3.org/2000/svg">
<path d="M1.499 8.05906e-06C1.36825 -0.000518162 1.23868 0.0247305 1.11769 0.0743107C0.996708 0.123891 0.886681 0.196831 0.793902 0.288959C0.701123 0.381088 0.627412 0.4906 0.576982 0.611234C0.526552 0.731868 0.500393 0.861258 0.5 0.992008V19.008C0.502095 19.2706 0.607418 19.5219 0.793218 19.7075C0.979017 19.8931 1.23038 19.9982 1.493 20H17.507C17.6384 19.9991 17.7683 19.9723 17.8894 19.9211C18.0104 19.87 18.1202 19.7954 18.2124 19.7018C18.3046 19.6082 18.3775 19.4973 18.4269 19.3755C18.4762 19.2537 18.5011 19.1234 18.5 18.992V5.00001L13.5 8.05906e-06H1.499ZM8 5.50001H10C10 7.99001 12.144 10.66 14.816 11.551L14.359 13.49C11.223 13.042 7.982 14.38 5.055 16.332L3.875 14.719C4.961 13.85 6.003 12.376 6.775 10.653C7.545 8.93701 8 7.07701 8 5.50001ZM8.6 11.472C8.867 10.875 9.104 10.256 9.304 9.62901C9.78136 10.3583 10.3552 11.0196 11.01 11.595C10.028 11.771 9.067 12.06 8.135 12.428C8.3 12.114 8.455 11.795 8.6 11.472Z" fill="#002D4D"/>
</svg>
