<svg width="18" height="18" viewBox="0 0 18 18" fill="none" xmlns="http://www.w3.org/2000/svg">
<path d="M18 16L12.846 10.846C13.7988 9.39791 14.1804 7.64778 13.917 5.93446C13.6535 4.22114 12.7637 2.66651 11.4199 1.57157C10.076 0.476624 8.37366 -0.0807427 6.64245 0.00737888C4.91123 0.0955005 3.27429 0.822841 2.04855 2.04858C0.822811 3.27432 0.09547 4.91126 0.00734836 6.64248C-0.0807732 8.37369 0.476593 10.076 1.57154 11.4199C2.66648 12.7638 4.22111 13.6536 5.93442 13.917C7.64774 14.1805 9.39788 13.7988 10.846 12.846L16 18L18 16ZM1.99998 7.00001C1.99998 4.24301 4.24298 2.00001 6.99998 2.00001C9.75698 2.00001 12 4.24301 12 7.00001C12 9.75701 9.75698 12 6.99998 12C4.24298 12 1.99998 9.75701 1.99998 7.00001Z" fill="#002D4D"/>
</svg>
