<svg width="28" height="20" viewBox="0 0 28 20" fill="none" xmlns="http://www.w3.org/2000/svg">
<path d="M11.3333 14.0003L18.2533 10.0003L11.3333 6.00033V14.0003ZM26.7467 3.56033C26.92 4.18699 27.04 5.02699 27.12 6.09366C27.2133 7.16032 27.2533 8.08032 27.2533 8.88032L27.3333 10.0003C27.3333 12.9203 27.12 15.067 26.7467 16.4403C26.4133 17.6403 25.64 18.4137 24.44 18.747C23.8133 18.9203 22.6667 19.0403 20.9067 19.1203C19.1733 19.2137 17.5867 19.2537 16.12 19.2537L14 19.3337C8.41332 19.3337 4.93332 19.1203 3.55999 18.747C2.35999 18.4137 1.58666 17.6403 1.25332 16.4403C1.07999 15.8137 0.95999 14.9737 0.87999 13.907C0.786657 12.8403 0.746656 11.9203 0.746656 11.1203L0.666656 10.0003C0.666656 7.08033 0.87999 4.93366 1.25332 3.56033C1.58666 2.36033 2.35999 1.58699 3.55999 1.25366C4.18666 1.08033 5.33332 0.960325 7.09332 0.880325C8.82666 0.786992 10.4133 0.746992 11.88 0.746992L14 0.666992C19.5867 0.666992 23.0667 0.880326 24.44 1.25366C25.64 1.58699 26.4133 2.36033 26.7467 3.56033Z" fill="white"/>
</svg>
