<svg width="32" height="32" viewBox="0 0 32 32" fill="none" xmlns="http://www.w3.org/2000/svg">
<path d="M21.3333 16.0003C25.0133 16.0003 28 13.0137 28 9.33366C28 5.65366 25.0133 2.66699 21.3333 2.66699C17.6533 2.66699 14.6667 5.65366 14.6667 9.33366C14.6667 13.0137 17.6533 16.0003 21.3333 16.0003ZM28.6 23.467C28.08 22.9337 27.4267 22.667 26.6667 22.667H17.3333L14.56 21.6937L15 20.4403L17.3333 21.3337H21.0667C21.5333 21.3337 21.9067 21.147 22.2133 20.8403C22.52 20.5337 22.6667 20.1603 22.6667 19.747C22.6667 19.027 22.32 18.5337 21.6267 18.2537L11.9333 14.667H9.33335V26.667L18.6667 29.3337L29.3733 25.3337C29.3867 24.627 29.12 24.0003 28.6 23.467ZM6.66668 14.667H1.31201V29.3337H6.66668V14.667Z" fill="white"/>
</svg>
