<svg width="64" height="64" viewBox="0 0 64 64" fill="none" xmlns="http://www.w3.org/2000/svg">
<rect width="64" height="64" rx="32" fill="#0D79CE"/>
<g clip-path="url(#clip0_3_2784)">
<path d="M23.3115 25.9168L38.0836 23.3121C38.3013 23.2737 38.5253 23.3234 38.7063 23.4501C38.8874 23.5769 39.0106 23.7704 39.049 23.9881L41.3643 37.1188C41.4027 37.3365 41.353 37.5605 41.2263 37.7415C41.0995 37.9226 40.906 38.0458 40.6884 38.0842L25.9162 40.6889C25.6986 40.7273 25.4746 40.6777 25.2936 40.5509C25.1125 40.4241 24.9892 40.2306 24.9509 40.013L22.6356 26.8822C22.5972 26.6645 22.6468 26.4406 22.7736 26.2595C22.9004 26.0785 23.0939 25.9552 23.3115 25.9168ZM32.0033 31.7317L25.9532 28.191L25.111 29.6291L32.3951 33.8915L37.6674 27.4108L36.375 26.3584L32.0033 31.7317Z" fill="white"/>
</g>
<circle cx="32" cy="32" r="19" stroke="white" stroke-width="6" stroke-dasharray="2 9"/>
<defs>
<clipPath id="clip0_3_2784">
<rect width="20" height="20" fill="white" transform="translate(20.4154 23.8887) rotate(-10)"/>
</clipPath>
</defs>
</svg>
