<svg width="32" height="32" viewBox="0 0 32 32" fill="none" xmlns="http://www.w3.org/2000/svg">
<path d="M13.3333 20.0003L20.2533 16.0003L13.3333 12.0003V20.0003ZM28.7467 9.56033C28.92 10.187 29.04 11.027 29.12 12.0937C29.2133 13.1603 29.2533 14.0803 29.2533 14.8803L29.3333 16.0003C29.3333 18.9203 29.12 21.067 28.7467 22.4403C28.4133 23.6403 27.64 24.4137 26.44 24.747C25.8133 24.9203 24.6667 25.0403 22.9067 25.1203C21.1733 25.2137 19.5867 25.2537 18.12 25.2537L16 25.3337C10.4133 25.3337 6.93332 25.1203 5.55999 24.747C4.35999 24.4137 3.58666 23.6403 3.25332 22.4403C3.07999 21.8137 2.95999 20.9737 2.87999 19.907C2.78666 18.8403 2.74666 17.9203 2.74666 17.1203L2.66666 16.0003C2.66666 13.0803 2.87999 10.9337 3.25332 9.56033C3.58666 8.36033 4.35999 7.58699 5.55999 7.25366C6.18666 7.08033 7.33332 6.96033 9.09332 6.88033C10.8267 6.78699 12.4133 6.74699 13.88 6.74699L16 6.66699C21.5867 6.66699 25.0667 6.88033 26.44 7.25366C27.64 7.58699 28.4133 8.36033 28.7467 9.56033Z" fill="white"/>
</svg>
