<svg viewBox="0 0 64 64" fill="none" xmlns="http://www.w3.org/2000/svg">
<rect width="64" height="64" rx="32" fill="#0D79CE"/>
<path d="M30.1519 39.7279L31.3226 37.0479C32.3468 34.6795 34.221 32.7805 36.5759 31.7253L39.7972 30.2959C40.8212 29.8413 40.8212 28.3519 39.7972 27.8959L36.6772 26.5119C34.2617 25.4292 32.354 23.4604 31.3479 21.0119L30.1612 18.1559C30.0679 17.9213 29.9063 17.7201 29.6973 17.5784C29.4884 17.4366 29.2417 17.3608 28.9892 17.3608C28.7367 17.3608 28.49 17.4366 28.2811 17.5784C28.0721 17.7201 27.9105 17.9213 27.8172 18.1559L26.6319 21.0119C25.6258 23.4604 23.7181 25.4292 21.3026 26.5119L18.1826 27.8973C17.1586 28.3506 17.1586 29.8413 18.1826 30.2959L21.4026 31.7253C23.7572 32.7802 25.6313 34.6786 26.6559 37.0466L27.8266 39.7266C27.9228 39.9555 28.0845 40.1508 28.2913 40.2882C28.4982 40.4256 28.7409 40.4989 28.9892 40.4989C29.2375 40.4989 29.4803 40.4256 29.6871 40.2882C29.8939 40.1508 30.0556 39.9568 30.1519 39.7279ZM41.8679 46.2519L42.1972 45.4973C42.7748 44.1624 43.8312 43.0921 45.1586 42.4973L46.1719 42.0453C46.2947 41.9888 46.3987 41.8983 46.4716 41.7845C46.5445 41.6707 46.5832 41.5384 46.5832 41.4033C46.5832 41.2681 46.5445 41.1358 46.4716 41.022C46.3987 40.9082 46.2947 40.8177 46.1719 40.7613L45.2159 40.3359C43.8542 39.7252 42.7789 38.6151 42.2119 37.2346L41.8732 36.4199C41.8232 36.2943 41.7365 36.1865 41.6246 36.1106C41.5126 36.0347 41.3805 35.9941 41.2452 35.9941C41.11 35.9941 40.9778 36.0347 40.8658 36.1106C40.7539 36.1865 40.6673 36.2943 40.6172 36.4199L40.2785 37.2333C39.7118 38.6142 38.6365 39.7249 37.2746 40.3359L36.3172 40.7626C36.1948 40.8192 36.0912 40.9097 36.0185 41.0234C35.9459 41.137 35.9073 41.2691 35.9073 41.4039C35.9073 41.5388 35.9459 41.6709 36.0185 41.7845C36.0912 41.8981 36.1948 41.9886 36.3172 42.0453L37.3306 42.4959C38.6586 43.0908 39.7156 44.1616 40.2932 45.4973L40.6225 46.2519C40.8625 46.8039 41.6279 46.8039 41.8679 46.2519Z" fill="white"/>
</svg>
