<svg width="64" height="64" viewBox="0 0 64 64" fill="none" xmlns="http://www.w3.org/2000/svg">
<rect width="64" height="64" rx="32" fill="#0D79CE"/>
<path d="M28.0003 17.3334V20H36.0003V17.3334H38.667V20H44.0003C44.3539 20 44.6931 20.1405 44.9431 20.3906C45.1932 20.6406 45.3337 20.9798 45.3337 21.3334V42.6667C45.3337 43.0203 45.1932 43.3595 44.9431 43.6095C44.6931 43.8596 44.3539 44 44.0003 44H20.0003C19.6467 44 19.3076 43.8596 19.0575 43.6095C18.8075 43.3595 18.667 43.0203 18.667 42.6667V21.3334C18.667 20.9798 18.8075 20.6406 19.0575 20.3906C19.3076 20.1405 19.6467 20 20.0003 20H25.3337V17.3334H28.0003ZM42.667 26.6667H21.3337V41.3334H42.667V26.6667ZM36.0483 29.5147L37.9337 31.4L31.3337 38L26.619 33.2854L28.507 31.4L31.335 34.2294L36.0483 29.5147Z" fill="white"/>
</svg>
