<svg viewBox="0 0 64 64" fill="none" xmlns="http://www.w3.org/2000/svg">
<rect width="64" height="64" rx="32" fill="#0D79CE"/>
<path d="M17.5762 32C18.8295 25.1733 24.8108 20 32.0002 20C39.1895 20 45.1708 25.1733 46.4255 32C45.1722 38.8267 39.1895 44 32.0002 44C24.8108 44 18.8295 38.8267 17.5762 32ZM32.0002 38.6667C33.7683 38.6667 35.464 37.9643 36.7142 36.714C37.9645 35.4638 38.6668 33.7681 38.6668 32C38.6668 30.2319 37.9645 28.5362 36.7142 27.286C35.464 26.0357 33.7683 25.3333 32.0002 25.3333C30.2321 25.3333 28.5364 26.0357 27.2861 27.286C26.0359 28.5362 25.3335 30.2319 25.3335 32C25.3335 33.7681 26.0359 35.4638 27.2861 36.714C28.5364 37.9643 30.2321 38.6667 32.0002 38.6667ZM32.0002 36C30.9393 36 29.9219 35.5786 29.1717 34.8284C28.4216 34.0783 28.0002 33.0609 28.0002 32C28.0002 30.9391 28.4216 29.9217 29.1717 29.1716C29.9219 28.4214 30.9393 28 32.0002 28C33.061 28 34.0785 28.4214 34.8286 29.1716C35.5787 29.9217 36.0002 30.9391 36.0002 32C36.0002 33.0609 35.5787 34.0783 34.8286 34.8284C34.0785 35.5786 33.061 36 32.0002 36Z" fill="white"/>
</svg>
