<svg viewBox="0 0 64 64" fill="none" xmlns="http://www.w3.org/2000/svg">
<rect width="64" height="64" rx="32" fill="#0D79CE"/>
<path d="M20 20H32.5093C32.7569 20.0001 32.9995 20.0692 33.21 20.1994C33.4206 20.3296 33.5907 20.5159 33.7013 20.7373L34.6667 22.6667H42.6667C43.0203 22.6667 43.3594 22.8071 43.6095 23.0572C43.8595 23.3072 44 23.6464 44 24V38.6667C44 39.0203 43.8595 39.3594 43.6095 39.6095C43.3594 39.8595 43.0203 40 42.6667 40H34.1573C33.9098 39.9999 33.6672 39.9308 33.4566 39.8006C33.2461 39.6704 33.076 39.4841 32.9653 39.2627L32 37.3333H22.6667V45.3333H20V20Z" fill="white"/>
</svg>
