<svg viewBox="0 0 130 130" fill="none" xmlns="http://www.w3.org/2000/svg">
<path fill-rule="evenodd" clip-rule="evenodd" d="M49.1229 112.63C44.5865 110.362 40.0501 110.362 37.7819 114.898C35.5136 119.435 35.5136 123.971 40.05 126.239C44.5865 128.508 49.1229 128.508 51.3911 123.971C53.6593 119.435 53.6594 114.898 49.1229 112.63Z" fill="#D8DDE5"/>
<path fill-rule="evenodd" clip-rule="evenodd" d="M60.4632 128.51C55.9268 126.242 55.9267 121.706 58.1949 117.169C60.4631 112.633 64.9996 112.633 69.536 114.901C74.0724 119.437 74.0725 123.974 71.8043 126.242C69.5361 130.778 64.9996 130.778 60.4632 128.51Z" fill="#D8DDE5"/>
<path fill-rule="evenodd" clip-rule="evenodd" d="M83.1454 123.972C78.609 121.704 78.6089 117.167 80.8771 112.631C83.1453 108.095 87.6818 108.095 92.2182 110.363C96.7546 112.631 96.7547 117.167 94.4865 121.704C89.95 126.24 85.4136 126.24 83.1454 123.972Z" fill="#D8DDE5"/>
<path fill-rule="evenodd" clip-rule="evenodd" d="M99.0228 112.632C96.7546 110.363 96.7546 105.827 99.0228 101.291C101.291 96.7541 105.827 96.7541 110.364 99.0223C114.9 101.291 114.9 105.827 112.632 110.363C108.096 114.9 103.559 114.9 99.0228 112.632Z" fill="#D8DDE5"/>
<path fill-rule="evenodd" clip-rule="evenodd" d="M112.632 94.4855C108.096 92.2173 108.096 87.6809 110.364 83.1445C112.632 78.6081 117.169 78.6081 121.705 80.8763C126.242 83.1445 126.242 87.6809 123.974 92.2173C119.437 96.7537 114.901 96.7537 112.632 94.4855Z" fill="#D8DDE5"/>
<path fill-rule="evenodd" clip-rule="evenodd" d="M117.169 74.0721C112.633 71.8039 112.633 67.2674 114.901 62.731C117.169 58.1946 121.705 58.1946 126.242 60.4628C130.778 62.731 130.778 67.2674 128.51 71.8039C126.242 76.3403 121.705 76.3403 117.169 74.0721Z" fill="#D8DDE5"/>
<path fill-rule="evenodd" clip-rule="evenodd" d="M114.901 53.6586C110.364 51.3904 110.364 46.8539 112.633 42.3175C114.901 37.7811 119.437 37.7811 123.974 40.0493C128.51 42.3175 128.51 46.8539 126.242 51.3904C123.974 55.9268 119.437 55.9268 114.901 53.6586Z" fill="#D8DDE5"/>
<path fill-rule="evenodd" clip-rule="evenodd" d="M105.828 35.5117C101.291 33.2435 101.291 28.7071 103.559 24.1707C105.828 21.9025 110.364 19.6343 114.9 21.9025C119.437 24.1707 119.437 28.7071 117.169 33.2435C112.632 37.7799 108.096 37.7799 105.828 35.5117Z" fill="#D8DDE5"/>
<path fill-rule="evenodd" clip-rule="evenodd" d="M89.9503 21.9046C85.4138 19.6364 85.4138 15.1 87.682 10.5636C89.9502 6.0272 94.4866 6.0272 99.0231 8.29541C103.56 10.5636 103.56 15.1 101.291 19.6364C96.7549 24.1729 92.2185 24.1729 89.9503 21.9046Z" fill="#D8DDE5"/>
<path fill-rule="evenodd" clip-rule="evenodd" d="M69.5363 15.0991C64.9999 12.8309 64.9999 8.2945 67.2682 3.75809C69.5364 -0.778326 74.0728 -0.778325 78.6092 1.48988C83.1457 3.75809 83.1456 8.2945 80.8774 12.8309C76.341 15.0991 71.8046 17.3673 69.5363 15.0991Z" fill="#D8DDE5"/>
<path fill-rule="evenodd" clip-rule="evenodd" d="M49.1225 15.0991C44.5861 12.8309 44.586 8.2945 46.8542 3.75809C49.1225 -0.778326 53.6589 -0.778325 58.1953 1.48988C62.7317 3.75809 62.7318 8.2945 60.4636 12.8309C55.9272 17.3673 51.3907 17.3673 49.1225 15.0991Z" fill="#D8DDE5"/>
<path fill-rule="evenodd" clip-rule="evenodd" d="M28.7086 21.9046C24.1721 19.6364 24.1722 15.1 26.4404 10.5636C28.7086 6.0272 33.245 6.0272 37.7814 8.29541C42.3179 10.5636 42.3178 15.1 40.0496 19.6364C37.7814 24.1729 30.9768 26.4411 28.7086 21.9046Z" fill="#D8DDE5"/>
<path fill-rule="evenodd" clip-rule="evenodd" d="M12.8313 37.7801C8.29485 35.5119 8.29488 30.9754 10.5631 26.439C12.8313 21.9026 17.3677 21.9026 21.9042 24.1708C26.4406 26.439 26.4406 30.9754 24.1723 35.5119C21.9041 40.0483 17.3677 40.0483 12.8313 37.7801Z" fill="#D8DDE5"/>
<path fill-rule="evenodd" clip-rule="evenodd" d="M3.75813 55.925C-0.778296 53.6568 -0.778348 49.1204 1.48987 44.5839C6.0263 42.3157 10.5627 42.3157 12.8309 44.5839C17.3674 46.8521 17.3674 51.3886 15.0992 55.925C12.831 58.1932 8.29456 58.1932 3.75813 55.925Z" fill="#D8DDE5"/>
<path fill-rule="evenodd" clip-rule="evenodd" d="M3.75813 78.6069C-0.778296 76.3387 -0.778348 71.8023 1.48987 67.2659C3.75808 62.7295 8.29451 62.7295 12.8309 64.9977C17.3674 67.2659 17.3674 71.8023 15.0992 76.3387C10.5628 78.6069 6.02635 80.8752 3.75813 78.6069Z" fill="#D8DDE5"/>
<path fill-rule="evenodd" clip-rule="evenodd" d="M8.29412 99.0236C6.02591 94.4872 6.02591 89.9508 8.29412 87.6826C10.5623 83.1461 15.0988 83.1461 19.6352 85.4144C24.1716 87.6826 24.1717 92.219 21.9035 96.7554C17.367 99.0236 12.8306 101.292 8.29412 99.0236Z" fill="#D8DDE5"/>
<path fill-rule="evenodd" clip-rule="evenodd" d="M30.9765 101.29C26.4401 99.0216 21.9037 99.0216 19.6355 103.558C17.3672 108.094 17.3673 112.631 21.9037 114.899C26.4401 117.167 30.9766 117.167 33.2448 112.631C35.513 110.363 35.513 103.558 30.9765 101.29Z" fill="#D8DDE5"/>
</svg>
