<svg width="110" height="110" viewBox="0 0 110 110" fill="none" xmlns="http://www.w3.org/2000/svg">
<g clip-path="url(#clip0_2576_20796)">
<g filter="url(#filter0_d_2576_20796)">
<path fill-rule="evenodd" clip-rule="evenodd" d="M10.4708 44.6062C10.5235 21.4501 27.9052 2.02478 51.3754 0.385098C58.5792 -0.119069 65.5035 1.12072 71.734 3.7401C86.7495 10.0513 97.7449 24.3857 98.959 41.7388C100.675 66.2951 82.0161 86.9499 57.4529 88.6658C57.4529 88.6658 54.9715 88.7878 51.9362 88.6143C48.2146 88.4017 45.9951 87.9611 44.3989 87.5584C41.4318 86.8187 37.332 86.9224 35.0449 88.0866C32.6971 89.2817 29.1576 91.2921 27.8755 98.9107C27.0333 103.916 26.3143 110.494 26.3143 110.494C26.3143 110.494 25.3764 103.599 24.6517 98.8695C23.9458 94.2609 23.0658 90.4315 22.2225 87.9187C20.514 82.5534 19.7171 80.5464 18.443 76.9898C17.2719 73.7201 14.719 67.1087 12.7739 60.4239C11.2414 55.1565 10.4599 49.3042 10.4708 44.6062Z" fill="#FEFEFE"/>
<path fill-rule="evenodd" clip-rule="evenodd" d="M97.3119 41.6505C95.6711 18.1586 75.289 0.44516 51.788 2.08542C29.6894 3.6323 12.7036 21.741 12.1221 43.4334L59.901 86.9596C82.3135 84.2577 98.9052 64.4187 97.3119 41.6505Z" fill="#008ED2"/>
<path fill-rule="evenodd" clip-rule="evenodd" d="M26.2435 98.2396C26.2435 98.2396 25.7284 94.0326 24.2898 88.3218L28.192 91.8739C26.4698 95.0891 26.2435 98.239 26.2435 98.239V98.2396ZM13.1042 54.5432C12.6356 52.1381 12.3674 50.1341 12.2236 48.554L54.5221 87.0889C52.44 87.0808 50.3613 86.9208 48.3025 86.6099L13.1042 54.5432ZM16.9502 68.032C16.1244 65.7832 15.3806 63.5051 14.7204 61.2022L41.0333 85.1725C39.1954 85.0608 37.5895 85.208 36.1784 85.5506L16.9502 68.032ZM22.5184 82.4912C21.9621 80.8601 21.0185 77.9348 20.3155 76.282L32.3164 87.2167C31.6232 87.6796 30.7535 88.5286 30.0832 89.1852L22.5184 82.4912Z" fill="#E30334"/>
<path fill-rule="evenodd" clip-rule="evenodd" d="M26.2024 37.586V29.9415H31.0911V30.9819H27.3631V33.2163H30.5411V34.2464H27.3631V36.5455H31.0911V37.586H26.2024ZM35.8343 37.6501C34.2771 37.6501 33.094 36.5885 33.094 35.009V29.9415H34.2553V34.9563C34.2553 35.9761 34.8781 36.6097 35.8343 36.6097C36.7911 36.6097 37.4241 35.9755 37.4241 34.9563V29.941H38.5843V35.009C38.5843 36.5879 37.3926 37.6496 35.8343 37.6496V37.6501ZM45.2175 37.586L43.6065 34.3662H42.1564V37.586H40.9968V29.9415H43.9622C45.4117 29.9415 46.3353 30.8754 46.3353 32.1742C46.3353 33.2696 45.6684 33.9674 44.8102 34.204L46.5713 37.586H45.2175ZM43.8752 30.9819H42.1564V33.3779H43.8752C44.6486 33.3779 45.1757 32.9373 45.1757 32.1856C45.1757 31.434 44.6486 30.9819 43.8752 30.9819ZM53.0539 36.8349C52.5285 37.3614 51.8525 37.6501 51.0361 37.6501C50.2185 37.6501 49.5539 37.3614 49.0274 36.8349C48.2746 36.0832 48.2866 35.2347 48.2866 33.7635C48.2866 32.2934 48.2752 31.4437 49.0274 30.6926C49.5539 30.1655 50.2191 29.8762 51.0361 29.8762C51.8525 29.8762 52.5285 30.1655 53.0539 30.6926C53.8072 31.4437 53.7861 32.2934 53.7861 33.7635C53.7861 35.2347 53.8072 36.0843 53.0539 36.8349ZM52.1733 31.3916C51.9069 31.1005 51.4858 30.9184 51.0361 30.9184C50.5852 30.9184 50.1652 31.1005 49.8971 31.3916C49.5213 31.7984 49.4468 32.228 49.4468 33.7635C49.4468 35.2983 49.5213 35.7286 49.8971 36.1371C50.1646 36.4264 50.5846 36.6097 51.0361 36.6097C51.4864 36.6097 51.9069 36.4264 52.1733 36.1371C52.5503 35.7286 52.6247 35.2983 52.6247 33.7635C52.6247 32.228 52.5503 31.7984 52.1733 31.3916ZM58.9366 34.5787H57.1961V37.5865H56.037V29.941H58.936C60.4302 29.941 61.3869 30.9287 61.3869 32.2601C61.3869 33.591 60.4302 34.5787 58.9366 34.5787ZM58.8724 30.9819H57.1961V33.5268H58.8724C59.6785 33.5268 60.2268 33.0656 60.2268 32.2607C60.2268 31.4546 59.6785 30.9819 58.8724 30.9819ZM63.3268 37.586V29.9415H68.2138V30.9819H64.4876V33.2163H67.6673V34.2464H64.4876V36.5455H68.215V37.586H63.3268ZM74.7302 37.586L74.2037 36.0505H71.1844L70.6584 37.586H69.4244L72.2282 29.9415H73.1632L75.9682 37.586H74.7302ZM72.7221 31.6689L71.5287 35.0628H73.8817L72.7221 31.6689ZM82.2772 37.586L78.7429 32.2068V37.5865H77.585V29.941H78.6478L82.1821 35.3092V29.941H83.3405V37.5854L82.2772 37.586ZM30.1452 48.1139C29.6623 48.598 28.9627 48.8335 28.1681 48.8335H25.4834V41.1879H28.1681C28.9627 41.1879 29.6623 41.4245 30.1452 41.9069C30.9719 42.7336 30.9175 43.8508 30.9175 44.9565C30.9175 46.0634 30.9719 47.2866 30.1452 48.1133V48.1139ZM29.3512 42.7451C29.0286 42.3899 28.5983 42.2294 28.0506 42.2294H26.643V47.7925H28.0512C28.5983 47.7925 29.0286 47.6309 29.3512 47.2768C29.7482 46.8368 29.7579 46.0096 29.7579 44.9571C29.7579 43.9052 29.7482 43.1856 29.3512 42.7451ZM33.1691 48.834V41.1873H34.3315V48.8329H33.1685L33.1691 48.834ZM38.8942 48.8982C37.7427 48.8982 36.9154 48.6295 36.1861 47.8887L36.9595 47.1267C37.5181 47.6848 38.1311 47.8561 38.9154 47.8561C39.9134 47.8561 40.4927 47.4264 40.4927 46.6862C40.4927 46.3539 40.397 46.0737 40.193 45.8921C40 45.7088 39.8057 45.6337 39.3549 45.5696L38.4519 45.4406C37.8298 45.3547 37.3353 45.1387 37.0025 44.8282C36.6261 44.4747 36.4427 43.9906 36.4427 43.369C36.4427 42.0364 37.4109 41.1231 39.0008 41.1231C40.0091 41.1231 40.719 41.381 41.3744 41.994L40.633 42.7233C40.1604 42.2724 39.6121 42.1332 38.9681 42.1332C38.0658 42.1332 37.5719 42.6483 37.5719 43.326C37.5719 43.6045 37.6573 43.8514 37.8624 44.033C38.0543 44.2049 38.3677 44.3338 38.7212 44.3882L39.5909 44.5177C40.299 44.6248 40.6966 44.7955 41.0192 45.0866C41.4374 45.451 41.6431 45.9992 41.6431 46.6535C41.6431 48.0612 40.4927 48.8982 38.8942 48.8982ZM48.1262 48.8335L47.6003 47.298H44.5821L44.0551 48.8335H42.821L45.6243 41.1885H46.5599L49.3637 48.8335H48.1262ZM46.1176 42.9175L44.9259 46.3109H47.2777L46.1176 42.9175ZM54.0742 48.834H50.9805V41.1873H53.9562C55.3736 41.1873 56.2645 41.9923 56.2645 43.2808C56.2645 44.1069 55.7506 44.6981 55.2332 44.9021C55.8251 45.1376 56.3837 45.7076 56.3837 46.6736C56.3837 48.0812 55.4286 48.8329 54.0748 48.8329L54.0742 48.834ZM53.9654 45.4618H52.1401V47.7925H53.9659C54.7726 47.7925 55.2241 47.298 55.2241 46.6214C55.2241 45.9465 54.772 45.4618 53.9654 45.4618ZM53.8582 42.23H52.1401V44.4209H53.8582C54.6007 44.4209 55.1055 44.033 55.1055 43.326C55.1055 42.6156 54.6007 42.23 53.8582 42.23ZM58.6346 48.834V41.1873H59.7948V48.8329H58.6346V48.834ZM62.3282 48.834V41.1873H63.4878V47.7908H67.1728V48.8329H62.3282V48.834ZM69.0268 48.834V41.1873H70.1892V48.8329H69.0262L69.0268 48.834ZM75.3111 42.23V48.834H74.1487V42.2294H72.0438V41.1873H77.4137V42.2289H75.3111V42.23ZM81.773 45.6876V48.834H80.6117V45.6876L78.3235 41.1885H79.5908L81.1927 44.5492L82.7917 41.1885H84.0595L81.773 45.6876ZM37.7392 53.3572V55.6867H40.9178V56.7277H37.7392V59.9606H36.5779V52.3134H41.4661V53.3566H37.7392V53.3572ZM47.8867 59.2084C47.3596 59.7355 46.6819 60.0248 45.8672 60.0248C45.0508 60.0248 44.3839 59.7355 43.8586 59.2084C43.1046 58.4573 43.1166 57.6088 43.1166 56.1376C43.1166 54.6669 43.1052 53.8178 43.8586 53.0667C44.3839 52.5397 45.0502 52.2492 45.8672 52.2492C46.6819 52.2492 47.3602 52.5397 47.8867 53.0667C48.6373 53.8178 48.6161 54.6669 48.6161 56.1376C48.6161 57.6088 48.6373 58.4573 47.8867 59.2084ZM47.0044 53.764C46.7363 53.4747 46.3175 53.2919 45.8672 53.2919C45.4146 53.2919 44.9964 53.4747 44.7271 53.764C44.3513 54.1719 44.2768 54.6016 44.2768 56.1376C44.2768 57.673 44.3513 58.1032 44.7271 58.5112C44.9964 58.8005 45.4146 58.9827 45.8672 58.9827C46.3175 58.9827 46.7363 58.8005 47.005 58.5112C47.382 58.1032 47.4565 57.6736 47.4565 56.1376C47.4565 54.6016 47.3814 54.1719 47.0044 53.764ZM55.0894 59.9606L53.4795 56.7391H52.0295V59.9606H50.867V52.3134H53.833C55.2837 52.3134 56.2078 53.2484 56.2078 54.5477C56.2078 55.6437 55.5403 56.341 54.6804 56.5776L56.4432 59.9601L55.0894 59.9606ZM53.7477 53.3572H52.0289V55.7497H53.7477C54.52 55.7497 55.0459 55.3109 55.0459 54.5592C55.0459 53.8081 54.52 53.3572 53.7477 53.3572ZM61.0558 60.0248C59.4998 60.0248 58.319 58.9626 58.319 57.3831V52.3134H59.478V57.3287C59.478 58.3485 60.1025 58.9821 61.0558 58.9821C62.0137 58.9821 62.6456 58.349 62.6456 57.3287V52.3134H63.8069V57.3825C63.8069 58.9621 62.6153 60.0248 61.0558 60.0248ZM71.8049 59.9606V54.8497L70.0443 58.5753H69.1843L67.3808 54.8497V59.9601H66.2195V52.3145H67.3808L69.614 57.072L71.8049 52.3145H72.965V59.9612L71.8049 59.9606Z" fill="#FEFEFE"/>
</g>
</g>
<defs>
<filter id="filter0_d_2576_20796" x="7.0332" y="-2.01701" width="95.4727" height="117.094" filterUnits="userSpaceOnUse" color-interpolation-filters="sRGB">
<feFlood flood-opacity="0" result="BackgroundImageFix"/>
<feColorMatrix in="SourceAlpha" type="matrix" values="0 0 0 0 0 0 0 0 0 0 0 0 0 0 0 0 0 0 127 0" result="hardAlpha"/>
<feOffset dy="1.14583"/>
<feGaussianBlur stdDeviation="1.71875"/>
<feColorMatrix type="matrix" values="0 0 0 0 0.0352941 0 0 0 0 0.141176 0 0 0 0 0.192157 0 0 0 0.2 0"/>
<feBlend mode="normal" in2="BackgroundImageFix" result="effect1_dropShadow_2576_20796"/>
<feBlend mode="normal" in="SourceGraphic" in2="effect1_dropShadow_2576_20796" result="shape"/>
</filter>
<clipPath id="clip0_2576_20796">
<rect width="110" height="110" fill="white"/>
</clipPath>
</defs>
</svg>
